<svg width="129" height="22" viewBox="0 0 129 22" fill="none" xmlns="http://www.w3.org/2000/svg">
<path d="M6.208 5.44C7.46667 5.44 8.44267 5.73867 9.136 6.336C9.84 6.92267 10.192 7.70667 10.192 8.688C10.192 9.76533 9.84533 10.5867 9.152 11.152C8.45867 11.7173 7.48267 12 6.224 12L5.968 12.144H3.872V16H1.168V5.44H6.208ZM5.824 10.192C6.35733 10.192 6.75733 10.0853 7.024 9.872C7.29067 9.65867 7.424 9.31733 7.424 8.848C7.424 8.38933 7.29067 8.05333 7.024 7.84C6.75733 7.62667 6.35733 7.52 5.824 7.52H3.872V10.192H5.824ZM7.44 10.768L10.816 16H7.776L5.072 11.376L7.44 10.768ZM15.8019 16.16C14.9165 16.16 14.1485 15.9947 13.4979 15.664C12.8579 15.3333 12.3619 14.8587 12.0099 14.24C11.6579 13.6213 11.4819 12.8747 11.4819 12C11.4819 11.1253 11.6579 10.3787 12.0099 9.76C12.3619 9.14133 12.8525 8.66667 13.4819 8.336C14.1219 8.00533 14.8525 7.84 15.6739 7.84C16.5165 7.84 17.2312 8.00533 17.8179 8.336C18.4152 8.656 18.8685 9.104 19.1779 9.68C19.4872 10.2453 19.6419 10.896 19.6419 11.632C19.6419 11.824 19.6365 12.016 19.6259 12.208C19.6152 12.4 19.5992 12.56 19.5779 12.688H13.2419V11.232H18.3779L17.0819 11.728C17.0819 11.088 16.9645 10.5973 16.7299 10.256C16.5059 9.91467 16.1539 9.744 15.6739 9.744C15.3325 9.744 15.0392 9.824 14.7939 9.984C14.5592 10.144 14.3779 10.3947 14.2499 10.736C14.1325 11.0773 14.0739 11.5147 14.0739 12.048C14.0739 12.5707 14.1432 12.9973 14.2819 13.328C14.4205 13.648 14.6179 13.8827 14.8739 14.032C15.1299 14.1707 15.4392 14.24 15.8019 14.24C16.2072 14.24 16.5272 14.16 16.7619 14C17.0072 13.84 17.1885 13.616 17.3059 13.328L19.4819 14.048C19.3325 14.5067 19.0712 14.896 18.6979 15.216C18.3352 15.5253 17.8979 15.76 17.3859 15.92C16.8845 16.08 16.3565 16.16 15.8019 16.16ZM25.6275 10.928C25.6275 10.5547 25.5208 10.2613 25.3075 10.048C25.1048 9.824 24.8275 9.712 24.4755 9.712C24.1235 9.712 23.8195 9.80267 23.5635 9.984C23.3182 10.1547 23.1475 10.464 23.0515 10.912L20.7475 10.368C20.8968 9.6 21.2915 8.98667 21.9315 8.528C22.5715 8.06933 23.4728 7.84 24.6355 7.84C25.4142 7.84 26.0755 7.95733 26.6195 8.192C27.1742 8.416 27.5955 8.75733 27.8835 9.216C28.1822 9.664 28.3315 10.2187 28.3315 10.88V13.808C28.3315 14.224 28.5182 14.432 28.8915 14.432C29.0835 14.432 29.2382 14.4107 29.3555 14.368L29.1955 15.92C28.8755 16.0693 28.4862 16.144 28.0275 16.144C27.6115 16.144 27.2435 16.08 26.9235 15.952C26.6035 15.8133 26.3528 15.6107 26.1715 15.344C25.9902 15.0667 25.8995 14.72 25.8995 14.304V14.208L26.2035 14.096C26.2035 14.5547 26.0648 14.9387 25.7875 15.248C25.5208 15.5573 25.1688 15.7867 24.7315 15.936C24.3048 16.0853 23.8568 16.16 23.3875 16.16C22.8435 16.16 22.3688 16.0747 21.9635 15.904C21.5582 15.7333 21.2435 15.488 21.0195 15.168C20.8062 14.8373 20.6995 14.432 20.6995 13.952C20.6995 13.376 20.8702 12.9013 21.2115 12.528C21.5635 12.144 22.1128 11.8773 22.8595 11.728L25.8835 11.104L25.8675 12.544L24.3315 12.864C24.0115 12.928 23.7715 13.024 23.6115 13.152C23.4622 13.2693 23.3875 13.4507 23.3875 13.696C23.3875 13.9307 23.4728 14.1067 23.6435 14.224C23.8142 14.3413 24.0168 14.4 24.2515 14.4C24.4328 14.4 24.6035 14.3733 24.7635 14.32C24.9342 14.2667 25.0835 14.1867 25.2115 14.08C25.3395 13.9627 25.4408 13.8187 25.5155 13.648C25.5902 13.4773 25.6275 13.2747 25.6275 13.04V10.928ZM33.3106 16.16C32.6493 16.16 32.068 16 31.5666 15.68C31.076 15.3493 30.692 14.8747 30.4146 14.256C30.148 13.6373 30.0146 12.896 30.0146 12.032C30.0146 11.136 30.1533 10.3787 30.4306 9.76C30.7186 9.14133 31.1133 8.66667 31.6146 8.336C32.1266 8.00533 32.7133 7.84 33.3746 7.84C34.1 7.84 34.6813 8.064 35.1186 8.512C35.5666 8.94933 35.8546 9.50933 35.9826 10.192L35.7266 10.528V4.608H38.4466V16H36.0146L35.8386 13.28L36.1586 13.52C36.0946 14.0533 35.9293 14.5173 35.6626 14.912C35.4066 15.3067 35.076 15.616 34.6706 15.84C34.276 16.0533 33.8226 16.16 33.3106 16.16ZM34.2546 14.16C34.564 14.16 34.8253 14.08 35.0386 13.92C35.2626 13.7493 35.4333 13.4987 35.5506 13.168C35.668 12.8373 35.7266 12.432 35.7266 11.952C35.7266 11.504 35.668 11.1253 35.5506 10.816C35.444 10.496 35.2786 10.256 35.0546 10.096C34.8413 9.92533 34.58 9.84 34.2706 9.84C33.8013 9.84 33.428 10.016 33.1506 10.368C32.884 10.7093 32.7506 11.2533 32.7506 12C32.7506 12.7467 32.884 13.296 33.1506 13.648C33.4173 13.9893 33.7853 14.16 34.2546 14.16ZM57.392 5.44V16H54.96V11.152L55.04 7.904H55.008L52.4 16H50.176L47.568 7.904H47.536L47.616 11.152V16H45.168V5.44H49.088L50.752 10.816L51.344 13.056H51.376L51.984 10.832L53.632 5.44H57.392ZM63.2996 7.84C64.1423 7.84 64.8783 8.00533 65.5076 8.336C66.1476 8.656 66.6436 9.13067 66.9956 9.76C67.3583 10.3787 67.5396 11.1253 67.5396 12C67.5396 12.8747 67.3583 13.6267 66.9956 14.256C66.6436 14.8747 66.1476 15.3493 65.5076 15.68C64.8783 16 64.1423 16.16 63.2996 16.16C62.4783 16.16 61.7476 16 61.1076 15.68C60.4676 15.3493 59.9663 14.8747 59.6036 14.256C59.2516 13.6267 59.0756 12.8747 59.0756 12C59.0756 11.1253 59.2516 10.3787 59.6036 9.76C59.9663 9.13067 60.4676 8.656 61.1076 8.336C61.7476 8.00533 62.4783 7.84 63.2996 7.84ZM63.2996 9.776C62.9903 9.776 62.7236 9.85067 62.4996 10C62.2756 10.1493 62.105 10.3893 61.9876 10.72C61.8703 11.0507 61.8116 11.4773 61.8116 12C61.8116 12.5227 61.8703 12.9493 61.9876 13.28C62.105 13.6 62.2756 13.84 62.4996 14C62.7236 14.1493 62.9903 14.224 63.2996 14.224C63.6196 14.224 63.8916 14.1493 64.1156 14C64.3396 13.84 64.5103 13.6 64.6276 13.28C64.745 12.9493 64.8036 12.5227 64.8036 12C64.8036 11.4773 64.745 11.0507 64.6276 10.72C64.5103 10.3893 64.3396 10.1493 64.1156 10C63.8916 9.85067 63.6196 9.776 63.2996 9.776ZM69.0698 16V8H71.4698L71.5818 9.728C71.7844 9.13067 72.0831 8.66667 72.4778 8.336C72.8831 8.00533 73.3951 7.84 74.0138 7.84C74.2164 7.84 74.3871 7.856 74.5258 7.888C74.6751 7.92 74.7924 7.96267 74.8778 8.016L74.6058 10.256C74.4991 10.2133 74.3604 10.1813 74.1898 10.16C74.0298 10.128 73.8324 10.112 73.5978 10.112C73.2778 10.112 72.9791 10.1813 72.7018 10.32C72.4244 10.4587 72.2004 10.6667 72.0298 10.944C71.8698 11.2107 71.7898 11.552 71.7898 11.968V16H69.0698ZM79.755 16.16C78.8697 16.16 78.1017 15.9947 77.451 15.664C76.811 15.3333 76.315 14.8587 75.963 14.24C75.611 13.6213 75.435 12.8747 75.435 12C75.435 11.1253 75.611 10.3787 75.963 9.76C76.315 9.14133 76.8057 8.66667 77.435 8.336C78.075 8.00533 78.8057 7.84 79.627 7.84C80.4697 7.84 81.1843 8.00533 81.771 8.336C82.3683 8.656 82.8217 9.104 83.131 9.68C83.4403 10.2453 83.595 10.896 83.595 11.632C83.595 11.824 83.5897 12.016 83.579 12.208C83.5683 12.4 83.5523 12.56 83.531 12.688H77.195V11.232H82.331L81.035 11.728C81.035 11.088 80.9177 10.5973 80.683 10.256C80.459 9.91467 80.107 9.744 79.627 9.744C79.2857 9.744 78.9923 9.824 78.747 9.984C78.5123 10.144 78.331 10.3947 78.203 10.736C78.0857 11.0773 78.027 11.5147 78.027 12.048C78.027 12.5707 78.0963 12.9973 78.235 13.328C78.3737 13.648 78.571 13.8827 78.827 14.032C79.083 14.1707 79.3923 14.24 79.755 14.24C80.1603 14.24 80.4803 14.16 80.715 14C80.9603 13.84 81.1417 13.616 81.259 13.328L83.435 14.048C83.2857 14.5067 83.0243 14.896 82.651 15.216C82.2883 15.5253 81.851 15.76 81.339 15.92C80.8377 16.08 80.3097 16.16 79.755 16.16Z" fill="#4B4B4B"/>
<path d="M120.167 10.4083C120.245 10.4858 120.307 10.578 120.349 10.6795C120.391 10.7811 120.413 10.89 120.413 11C120.413 11.11 120.391 11.2189 120.349 11.3205C120.307 11.422 120.245 11.5142 120.167 11.5917L116.342 15.4083C116.264 15.4858 116.202 15.578 116.159 15.6795C116.117 15.7811 116.095 15.89 116.095 16C116.095 16.11 116.117 16.2189 116.159 16.3205C116.202 16.422 116.264 16.5142 116.342 16.5917C116.498 16.7469 116.709 16.834 116.929 16.834C117.149 16.834 117.361 16.7469 117.517 16.5917L121.342 12.7667C121.81 12.2979 122.073 11.6625 122.073 11C122.073 10.3375 121.81 9.70208 121.342 9.23332L117.517 5.40833C117.362 5.25437 117.152 5.16758 116.933 5.16666C116.824 5.16602 116.715 5.18704 116.613 5.22852C116.512 5.26999 116.42 5.33109 116.342 5.40833C116.264 5.48579 116.202 5.57796 116.159 5.67951C116.117 5.78106 116.095 5.88998 116.095 5.99999C116.095 6.11 116.117 6.21892 116.159 6.32047C116.202 6.42202 116.264 6.51419 116.342 6.59166L120.167 10.4083Z" fill="#4CAF50"/>
</svg>
