<svg width="26" height="23" viewBox="0 0 26 23" fill="none" xmlns="http://www.w3.org/2000/svg">
<path d="M15.278 17.7261C14.0301 17.7261 13.0011 18.7324 13.0011 20.0011C13.0011 21.248 14.0082 22.2762 15.278 22.2762C16.5259 22.2762 17.5549 21.2699 17.5549 20.0011C17.533 18.7542 16.5259 17.7261 15.278 17.7261Z" fill="#465564"/>
<path d="M9.69517 19.8918C9.65139 18.6886 8.64429 17.7261 7.44016 17.7261C6.17035 17.7917 5.20704 18.8417 5.25082 20.0886C5.29461 21.2918 6.27981 22.2543 7.48395 22.2543H7.52773C8.77565 22.1887 9.76085 21.1387 9.69517 19.8918Z" fill="#465564"/>
<path d="M19.2845 6.87631C19.2407 6.87631 19.175 6.85443 19.1093 6.85443H5.31654L5.0976 5.38877C4.96624 4.42624 4.1343 3.70435 3.14909 3.70435H1.37573C0.89408 3.70435 0.5 4.09811 0.5 4.57937C0.5 5.06063 0.89408 5.45439 1.37573 5.45439H3.14909C3.25856 5.45439 3.34614 5.5419 3.36803 5.65127L4.72542 14.8828C4.90056 16.0422 5.90766 16.9172 7.0899 16.9172H16.1975C17.336 16.9172 18.3212 16.1078 18.562 14.9922L19.9851 7.88258C20.0727 7.4232 19.7661 6.96381 19.2845 6.87631Z" fill="#465564"/>
<ellipse cx="18.5" cy="6.99513" rx="6" ry="5.99513" fill="#465564" stroke="#4CAF50" stroke-width="2"/>
<path d="M21.4003 6.05664V7.32812H15.5526V6.05664H21.4003ZM19.162 3.66602V9.87695H17.7968V3.66602H19.162Z" fill="#FEFEFF"/>
</svg>
